<svg width="702" height="704" viewBox="0 0 702 704" fill="none" xmlns="http://www.w3.org/2000/svg">
<path d="M696.738 219.159C699.53 217.175 701.306 214.06 701.597 210.649C701.889 207.237 700.665 203.867 698.253 201.435L681.805 184.867V184.872C678.675 181.721 674.029 180.617 669.821 182.023L627.982 196.023L535.816 83.3567L582.728 36.3407H582.733C587.275 31.7885 587.275 24.4136 582.733 19.8567L566.285 3.40867H566.28C562.702 -0.164258 557.228 -1.02359 552.722 1.28361L493.353 31.5236L484.582 20.7528L484.577 20.758C484.332 20.4455 484.067 20.1486 483.785 19.8674C474.931 11.133 463.52 5.44606 451.212 3.62739C438.905 1.81486 426.337 3.96594 415.337 9.77846C393.796 5.71592 371.925 3.65339 350.004 3.61699C257.176 3.61699 168.151 40.4917 102.511 106.128C36.8747 171.768 0 260.794 0 353.621C0 446.448 36.8747 535.474 102.511 601.114C168.151 666.75 257.177 703.625 350.004 703.625C442.831 703.625 531.857 666.75 597.497 601.114C663.133 535.474 700.008 446.448 700.008 353.621C700.065 312.23 692.67 271.173 678.169 232.402L696.738 219.159ZM466.898 35.9857L481.341 53.7777C483.538 56.3037 486.705 57.7829 490.054 57.8507C492.325 57.8038 494.549 57.21 496.544 56.1215L555.762 25.9495L557.965 28.1683L511.835 74.3456C507.627 78.58 507.293 85.3144 511.064 89.9443L615.012 217.007H615.017C618.085 220.762 623.158 222.221 627.757 220.679L670.35 206.424L672.006 208.08L625.433 241.32C624.386 242.07 623.469 242.987 622.714 244.029L589.501 290.613L587.819 288.946L602.089 246.362C603.631 241.763 602.167 236.69 598.412 233.622L471.33 129.68C466.694 125.893 459.944 126.227 455.71 130.451L409.496 176.581L407.293 174.389L438.069 114.285C440.58 109.383 439.324 103.399 435.059 99.9206L417.351 85.5046C410.965 78.8952 407.429 70.0512 407.502 60.8686C407.57 51.6811 411.241 42.8952 417.721 36.3846C419.481 34.6138 421.439 33.046 423.554 31.7179C430.21 27.4731 438.095 25.5824 445.955 26.3534C453.809 27.1242 461.185 30.5096 466.887 35.9679L466.898 35.9857ZM280.271 341.946C280.631 308.134 283.943 274.415 290.172 241.18C309.73 246.133 329.828 248.628 350 248.613C370.063 247.831 390.011 245.16 409.568 240.633C415.938 274.04 419.339 307.94 419.745 341.945L280.271 341.946ZM419.791 365.279C419.401 399.154 416.036 432.93 409.734 466.216C370.556 456.076 329.442 456.076 290.264 466.216C283.962 432.93 280.598 399.154 280.207 365.279H419.791ZM273.204 211.506C252.011 203.652 232.163 192.558 214.371 178.615C240.907 158.036 271.787 143.776 304.658 136.918C289.846 159.724 279.194 184.975 273.204 211.506ZM196.543 194.156C217.882 211.552 242.038 225.167 267.97 234.407C261.105 269.855 257.412 305.844 256.933 341.948H128.96C131.908 285.891 156.069 233.052 196.544 194.162L196.543 194.156ZM256.767 365.276C257.309 401.427 261.064 437.454 267.991 472.938C242.09 482.198 217.934 495.76 196.532 513.047C156.059 474.156 131.902 421.328 128.959 365.274L256.767 365.276ZM273.24 495.746C279.225 522.308 289.891 547.59 304.74 570.412C271.828 563.522 240.923 549.23 214.36 528.61C232.194 514.719 252.054 503.636 273.24 495.746ZM295.407 488.944C331.183 479.61 368.762 479.61 404.538 488.944C390.762 542.75 369.735 575.277 349.996 575.277C330.258 575.277 309.231 542.75 295.434 488.944H295.407ZM426.725 495.746C447.922 503.631 467.787 514.715 485.631 528.61C459.068 549.224 428.162 563.527 395.251 570.422C410.106 547.599 420.772 522.312 426.751 495.744L426.725 495.746ZM503.433 513.048C482.037 495.762 457.88 482.199 431.974 472.939C438.911 437.455 442.677 401.428 443.224 365.278H571.03C568.088 421.33 543.927 474.158 503.457 513.051L503.433 513.048ZM676.659 353.608C676.659 440.244 642.243 523.328 580.982 584.595C519.716 645.855 436.622 680.272 349.995 680.272C263.368 680.272 180.275 645.856 119.008 584.595C57.7485 523.33 23.3311 440.235 23.3311 353.608C23.3311 266.982 57.7472 183.888 119.008 122.622C180.274 61.3617 263.368 26.9444 349.995 26.9444C364.485 26.9809 378.954 27.9652 393.312 29.8975C386.203 41.0849 383.109 54.3615 384.552 67.5375C385.995 80.7145 391.885 93.0068 401.245 102.392C401.521 102.673 401.813 102.939 402.12 103.184L413.006 112.048L382.673 171.303V171.308C380.36 175.813 381.219 181.293 384.798 184.876L401.246 201.324C405.803 205.871 413.178 205.871 417.73 201.324L464.746 154.412L577.396 246.579L563.735 287.355L563.35 288.522H563.355C562.334 291.73 562.761 295.23 564.521 298.1C568.245 312.449 570.506 327.141 571.277 341.944H443.037C442.651 302.298 438.245 262.798 429.891 224.042C429.193 220.98 427.297 218.329 424.625 216.688C421.953 215.042 418.734 214.542 415.688 215.303C394.152 220.683 372.157 224.022 349.994 225.277C331.541 225.292 313.161 222.985 295.292 218.407C309.094 164.412 330.218 131.943 349.994 131.943C361.046 133.912 370.645 140.698 376.188 150.459L395.125 136.834C378.354 113.511 361.322 108.61 349.994 108.61C348.937 108.578 347.885 108.615 346.833 108.724C297.016 109.328 248.562 125.094 207.926 153.922C167.29 182.75 136.4 223.271 119.369 270.088C102.333 316.906 99.9675 367.807 112.582 415.995C125.197 464.192 152.192 507.407 189.978 539.88C227.76 572.354 274.541 592.547 324.085 597.771C373.632 602.995 423.596 593.005 467.325 569.126C511.055 545.251 546.47 508.62 568.856 464.115C591.246 419.604 599.549 369.334 592.658 319.995C595.82 319.583 598.674 317.896 600.554 315.328L640.596 259.167L658.528 246.334V246.328C670.621 280.798 676.752 317.078 676.658 353.604L676.659 353.608Z" fill="#999999"/>
</svg>
